<?xml version="1.0" standalone="no"?>
<!DOCTYPE svg PUBLIC "-//W3C//DTD SVG 20010904//EN"
 "http://www.w3.org/TR/2001/REC-SVG-20010904/DTD/svg10.dtd">
<svg version="1.0" xmlns="http://www.w3.org/2000/svg"
 width="95.000000pt" height="95.000000pt" viewBox="0 0 95.000000 95.000000"
 preserveAspectRatio="xMidYMid meet">
<metadata>
Created by potrace 1.14, written by Peter Selinger 2001-2017
</metadata>
<g transform="translate(0.000000,95.000000) scale(0.100000,-0.100000)"
fill="#000000" stroke="none">
<path d="M409 917 c-109 -74 -102 -215 14 -277 42 -22 49 -23 97 -12 53 12
117 51 158 94 l22 25 -25 11 c-16 7 -35 34 -54 76 -21 46 -39 71 -63 86 -45
27 -106 26 -149 -3z"/>
<path d="M247 730 c-9 -11 -22 -20 -29 -21 -7 0 -39 -2 -71 -4 -91 -6 -147
-61 -147 -145 0 -35 22 -94 44 -116 21 -20 80 -44 109 -44 27 0 83 22 108 42
57 46 69 148 29 248 -12 30 -23 56 -24 57 -1 1 -10 -6 -19 -17z"/>
<path d="M746 695 c-47 -17 -70 -37 -94 -86 -46 -92 7 -197 129 -259 45 -23
51 -24 47 -7 -4 25 13 55 51 85 49 39 70 84 65 136 -9 94 -111 161 -198 131z"/>
<path d="M143 353 c-25 -5 -29 -13 -12 -30 13 -13 14 -56 2 -108 -12 -51 -8
-83 15 -114 58 -79 163 -89 234 -23 74 68 56 199 -33 254 -25 16 -53 22 -109
23 -41 1 -85 0 -97 -2z"/>
<path d="M610 323 c-60 -24 -111 -98 -125 -179 -4 -21 -9 -47 -12 -57 -4 -14
-1 -16 20 -8 19 7 33 5 58 -9 104 -58 146 -64 200 -27 88 59 93 197 9 257 -30
22 -120 36 -150 23z"/>
</g>
</svg>
