<svg width="374" height="112" viewBox="0 0 374 112" fill="none" xmlns="http://www.w3.org/2000/svg">
<g clip-path="url(#clip0_1932_394)">
<path d="M58.3689 106.216C58.3689 106.216 60.4324 66.123 89.8058 76.097C89.8058 76.097 106.732 83.2519 98.7877 101.945C98.7877 101.945 93.4888 114.177 79.0951 111.409C79.0951 111.409 73.5669 109.217 70.3424 106.445C67.1179 103.674 59.286 102.522 58.3652 106.216H58.3689Z" fill="#FFFAF3" stroke="#FFFAF3" stroke-width="0.136604" stroke-miterlimit="10"/>
<path d="M13.9277 72.8631C13.9277 72.8631 52.5123 62.054 52.4323 93.1319C52.4323 93.1319 51.0566 111.49 30.8399 109.896C30.8399 109.896 17.5817 108.758 15.6164 94.2041C15.6164 94.2041 15.9294 88.2562 17.5234 84.3103C19.1175 80.3645 17.7127 72.5604 13.9277 72.8594V72.8631Z" fill="#FFFAF3" stroke="#FFFAF3" stroke-width="0.136604" stroke-miterlimit="10"/>
<path d="M31.8264 22.6172C31.8264 22.6172 51.9848 57.309 21.9528 65.0621C21.9528 65.0621 3.876 68.3515 0.323972 48.3489C0.323972 48.3489 -1.91788 35.2059 11.6424 29.6336C11.6424 29.6336 17.4654 28.4375 21.6762 28.9881C25.8869 29.5388 33.071 26.2129 31.8264 22.6172Z" fill="#FFFAF3" stroke="#FFFAF3" stroke-width="0.136604" stroke-miterlimit="10"/>
<path d="M86.5335 22.7453C86.5335 22.7453 61.2326 53.8706 43.4106 28.4343C43.4106 28.4343 33.97 12.6401 51.4026 2.26131C51.4026 2.26131 62.8885 -4.47065 72.8713 6.28371C72.8713 6.28371 76.0375 11.3236 77.0092 15.4663C77.981 19.6091 83.6147 25.1777 86.5371 22.7416L86.5335 22.7453Z" fill="#FFFAF3" stroke="#FFFAF3" stroke-width="0.136604" stroke-miterlimit="10"/>
<path d="M102.245 74.6714C102.245 74.6714 64.8467 60.2702 83.4221 35.3809C83.4221 35.3809 95.4611 21.4721 110.732 34.8412C110.732 34.8412 120.693 43.681 113.6 56.5359C113.6 56.5359 109.804 61.1199 106.179 63.3335C102.551 65.5471 99.0277 72.6474 102.245 74.6714Z" fill="#FFFAF3" stroke="#FFFAF3" stroke-width="0.136604" stroke-miterlimit="10"/>
<path d="M150.878 46.8653H139.996V14.6934H158.848C162.116 14.6934 164.631 15.4191 166.392 16.8705C168.154 18.3219 169.035 20.1672 169.035 22.4136C169.035 23.7447 168.711 24.9335 168.059 25.9802C167.411 27.0268 166.542 27.8582 165.45 28.4709C164.362 29.0836 163.168 29.5467 161.88 29.8603C160.588 30.174 159.241 30.3308 157.84 30.3308V30.9143C159.048 30.9143 160.078 30.969 160.93 31.082C161.781 31.1951 162.582 31.4066 163.335 31.7202C164.089 32.0338 164.718 32.486 165.228 33.0768C165.734 33.6676 166.145 34.4188 166.458 35.3305C166.531 35.5384 166.851 36.5741 167.408 38.4376C167.965 40.3011 168.518 41.9312 169.053 43.3279C169.591 44.7283 170.083 45.702 170.53 46.2563V46.8616H158.753C158.379 46.0703 158.029 45.144 157.702 44.0901C157.374 43.0362 157.054 41.902 156.737 40.6913C156.421 39.4805 156.239 38.7621 156.177 38.536C155.638 36.6798 155.059 35.4618 154.441 34.8783C153.822 34.2948 152.854 34.0031 151.54 34.0031H150.867V46.858L150.878 46.8653ZM150.878 22.8366V28.2667H154.528C155.813 28.2667 156.806 28.0625 157.516 27.6504C158.226 27.2383 158.579 26.5235 158.579 25.5061C158.579 24.4886 158.229 23.8103 157.527 23.4201C156.825 23.0299 155.824 22.8366 154.528 22.8366H150.878Z" fill="#FFFAF3"/>
<path d="M183.745 47.4264C181.445 47.4264 179.319 47.0544 177.365 46.3141C175.41 45.5738 173.773 44.56 172.452 43.2727C171.131 41.9854 170.097 40.461 169.351 38.696C168.605 36.9309 168.23 35.0455 168.23 33.0434C168.23 31.0414 168.572 29.2289 169.26 27.4784C169.948 25.728 170.901 24.2109 172.128 22.9236C173.351 21.6363 174.857 20.6188 176.641 19.8713C178.424 19.1237 180.36 18.748 182.453 18.748C184.214 18.748 185.874 19.007 187.435 19.5212C188.996 20.039 190.372 20.7757 191.566 21.7311C192.759 22.6902 193.706 23.9155 194.397 25.4107C195.092 26.9059 195.438 28.5725 195.438 30.4141C195.438 31.417 195.318 32.5767 195.081 33.8931L178.111 33.131C178.275 34.6407 178.966 35.7603 180.182 36.486C181.397 37.2117 182.926 37.5727 184.76 37.5727C188.105 37.5727 191.038 36.6683 193.56 34.8595H194.164V45.0231C193.014 45.727 191.529 46.3031 189.71 46.7517C187.89 47.2002 185.903 47.4264 183.752 47.4264H183.745ZM178.46 30.6439L186.208 30.2391C185.983 29.5498 185.557 29.0101 184.92 28.6126C184.287 28.2151 183.512 28.0182 182.602 28.0182C181.692 28.0182 180.884 28.2406 180.138 28.6782C179.392 29.1195 178.831 29.7723 178.46 30.6402V30.6439Z" fill="#FFFAF3"/>
<path d="M207.616 46.8644H196.799V12.4023H207.616V46.8644Z" fill="#FFFAF3"/>
<path d="M217.623 47.4261C216.415 47.4261 215.29 47.2766 214.253 46.9775C213.216 46.6785 212.28 46.2299 211.443 45.6319C210.606 45.0338 209.951 44.2206 209.474 43.1958C208.998 42.1711 208.757 40.9859 208.757 39.6402C208.757 38.2945 209.023 37.0911 209.551 36.0262C210.082 34.965 210.77 34.1044 211.622 33.4443C212.473 32.7879 213.492 32.2409 214.679 31.8069C215.865 31.373 217.062 31.0703 218.271 30.8989C219.479 30.7275 220.756 30.6399 222.099 30.6399C223.741 30.6399 225.316 30.7603 226.823 30.9973V30.5925C226.15 29.2469 224.33 28.5722 221.36 28.5722C219.748 28.5722 218.096 28.8603 216.4 29.4365C214.704 30.0127 213.245 30.7493 212.022 31.6465H211.418V21.213C212.895 20.5092 214.631 19.9221 216.622 19.4516C218.613 18.9812 220.669 18.7441 222.791 18.7441C227.285 18.7441 230.845 19.9439 233.472 22.3435C236.1 24.7431 237.414 27.9632 237.414 32.0038V46.8572H227.001V45.982L228.344 34.7645H227.828C227.693 39.013 226.739 42.182 224.96 44.2789C223.184 46.3722 220.735 47.4188 217.616 47.4188L217.623 47.4261ZM221.408 39.7533C222.722 39.7533 223.784 39.2792 224.6 38.3274C225.411 37.3792 225.881 36.1758 225.997 34.728H223.981C222.114 34.728 220.778 35.0197 219.974 35.6032C219.17 36.1867 218.766 36.8905 218.766 37.7111C218.766 38.3711 219.02 38.8744 219.526 39.2245C220.032 39.5746 220.662 39.7533 221.408 39.7533Z" fill="#FFFAF3"/>
<path d="M249.439 47.4269C246.647 47.4269 244.475 46.5699 242.924 44.8596C241.37 43.1456 240.595 40.8773 240.595 38.051V25.7796H237.662V19.6311C239.587 19.6311 241.003 19.2591 241.905 18.5188C242.808 17.7785 243.259 16.5022 243.259 14.6934H251.408V19.292H256.131V26.6512L251.408 25.9109V34.685C251.408 35.7025 251.579 36.4865 251.924 37.0408C252.266 37.5952 252.863 37.8723 253.715 37.8723C254.446 37.8723 255.065 37.4821 255.575 36.7053H256.135V45.1185C254.465 46.6611 252.23 47.4305 249.439 47.4305V47.4269Z" fill="#FFFAF3"/>
<path d="M263.433 23.106C261.613 23.106 260.139 22.5626 259.011 21.4795C257.882 20.3964 257.318 19.069 257.318 17.4972C257.318 15.9255 257.89 14.5908 259.033 13.4931C260.175 12.3954 261.642 11.8447 263.433 11.8447C265.223 11.8447 266.661 12.3954 267.789 13.4931C268.917 14.5908 269.478 15.9291 269.478 17.4972C269.478 19.0654 268.921 20.4147 267.811 21.4905C266.697 22.5663 265.238 23.106 263.433 23.106ZM268.83 46.8648H257.97V22.2308H258.326C259.597 23.4561 261.296 24.0687 263.433 24.0687C265.569 24.0687 267.203 23.4561 268.469 22.2308H268.826V46.8648H268.83Z" fill="#FFFAF3"/>
<path d="M285.465 47.4264C283.165 47.4264 281.054 47.0507 279.129 46.3031C277.204 45.5556 275.592 44.5345 274.292 43.2398C272.993 41.9452 271.985 40.4318 271.268 38.696C270.551 36.9601 270.194 35.1075 270.194 33.131C270.194 31.5592 270.42 30.0531 270.879 28.6089C271.333 27.1648 271.999 25.8447 272.884 24.6485C273.765 23.4524 274.816 22.4131 276.039 21.5305C277.262 20.648 278.681 19.9624 280.294 19.4774C281.906 18.9924 283.631 18.748 285.465 18.748C287.718 18.748 289.803 19.131 291.725 19.8931C293.646 20.6553 295.251 21.6837 296.551 22.9783C297.85 24.2729 298.865 25.7973 299.597 27.555C300.328 29.3128 300.692 31.1726 300.692 33.131C300.692 35.0893 300.339 36.9601 299.63 38.696C298.92 40.4318 297.923 41.9452 296.642 43.2398C295.357 44.5345 293.752 45.5556 291.827 46.3031C289.902 47.0507 287.78 47.4264 285.469 47.4264H285.465ZM281.436 36.2526C282.466 36.9564 283.809 37.3065 285.465 37.3065C287.121 37.3065 288.479 36.9564 289.53 36.2526C290.582 35.5488 291.11 34.5094 291.11 33.1346C291.11 31.7598 290.582 30.7168 289.53 30.0057C288.479 29.2945 287.125 28.9408 285.465 28.9408C283.806 28.9408 282.503 29.2945 281.458 30.0057C280.414 30.7168 279.89 31.7598 279.89 33.1346C279.89 34.5094 280.406 35.5488 281.436 36.2526Z" fill="#FFFAF3"/>
<path d="M312.782 46.8647H302.057V19.2914H312.917L311.191 34.9726H311.639C312.265 28.9736 313.321 24.7725 314.809 22.362C316.294 19.9551 318.634 18.748 321.829 18.748C324.563 18.748 326.659 19.729 328.122 21.6874C329.585 23.6457 330.316 26.8038 330.316 31.1544V46.8611H319.569V37.0804C319.569 36.362 319.562 35.7676 319.547 35.2971C319.533 34.8267 319.497 34.287 319.435 33.6816C319.376 33.0763 319.282 32.5839 319.154 32.201C319.027 31.8181 318.86 31.4498 318.652 31.0888C318.441 30.7314 318.168 30.4652 317.822 30.2938C317.48 30.1224 317.084 30.0348 316.636 30.0348C316.068 30.0348 315.573 30.1479 315.147 30.3703C314.722 30.5964 314.369 30.9502 314.085 31.4352C313.801 31.9202 313.572 32.4563 313.401 33.0398C313.23 33.6233 313.099 34.3745 313.008 35.2935C312.917 36.2125 312.858 37.106 312.829 37.9739C312.8 38.8418 312.786 39.903 312.786 41.1612V46.8611L312.782 46.8647Z" fill="#FFFAF3"/>
<path d="M150.139 106.632H139.77V72.1696H150.539L149.574 81.6367H149.957C150.211 80.1123 150.572 78.763 151.041 77.5851C151.511 76.4108 152.038 75.4554 152.621 74.7151C153.203 73.9748 153.858 73.3694 154.59 72.899C155.321 72.4285 156.053 72.1003 156.784 71.9107C157.516 71.7247 158.291 71.6299 159.113 71.6299C161.366 71.6299 163.335 72.279 165.013 73.5809C166.69 74.8828 167.95 76.6041 168.787 78.7411C169.624 80.8818 170.042 83.2741 170.042 85.9216C170.042 88.5692 169.62 90.9688 168.776 93.124C167.931 95.2793 166.672 97.0151 164.991 98.328C163.313 99.6445 161.351 100.301 159.113 100.301C158.425 100.301 157.807 100.272 157.254 100.21C156.7 100.151 156.104 100.027 155.463 99.8414C154.822 99.6554 154.251 99.4001 153.749 99.0792C153.25 98.7583 152.752 98.3207 152.26 97.7664C151.769 97.2121 151.354 96.5629 151.019 95.8153C150.684 95.0678 150.393 94.1524 150.146 93.0657C149.898 91.9789 149.738 90.7573 149.665 89.397H149.127L150.135 96.0597V106.628L150.139 106.632ZM150.408 88.8609C151.452 89.5648 152.81 89.9149 154.484 89.9149C156.158 89.9149 157.508 89.5648 158.538 88.8609C159.568 88.1571 160.085 87.1105 160.085 85.7211C160.085 84.3316 159.565 83.3251 158.527 82.614C157.49 81.9029 156.144 81.5491 154.488 81.5491C152.832 81.5491 151.456 81.9029 150.412 82.614C149.367 83.3251 148.843 84.3608 148.843 85.7211C148.843 87.0813 149.367 88.1607 150.412 88.8609H150.408Z" fill="#FFFAF3"/>
<path d="M182.132 99.7437H171.407V72.1703H182.267L180.542 87.8515H180.99C181.244 84.697 181.63 82.064 182.154 79.9526C182.678 77.8447 183.366 76.1781 184.225 74.9601C185.084 73.7421 186.052 72.8814 187.137 72.3782C188.217 71.8786 189.52 71.627 191.045 71.627V84.1682H190.441C189.637 83.3623 188.629 82.9575 187.417 82.9575C185.79 82.9575 184.502 83.6832 183.555 85.1346C182.609 86.5861 182.132 88.7924 182.132 91.7535V99.74V99.7437Z" fill="#FFFAF3"/>
<path d="M207.189 100.305C204.889 100.305 202.778 99.9296 200.853 99.182C198.928 98.4345 197.316 97.4134 196.016 96.1187C194.717 94.8241 193.709 93.3107 192.992 91.5749C192.275 89.839 191.918 87.9864 191.918 86.0099C191.918 84.4381 192.144 82.932 192.603 81.4879C193.058 80.0437 193.727 78.7236 194.608 77.5274C195.489 76.3313 196.54 75.292 197.763 74.4094C198.986 73.5269 200.405 72.8413 202.018 72.3563C203.63 71.8713 205.355 71.627 207.189 71.627C209.442 71.627 211.527 72.0099 213.449 72.772C215.367 73.5342 216.976 74.5626 218.275 75.8572C219.574 77.1518 220.589 78.6762 221.321 80.4339C222.052 82.1917 222.416 84.0515 222.416 86.0099C222.416 87.9682 222.063 89.839 221.354 91.5749C220.644 93.3107 219.647 94.8241 218.366 96.1187C217.085 97.4134 215.476 98.4345 213.551 99.182C211.626 99.9296 209.504 100.305 207.193 100.305H207.189ZM203.16 89.1315C204.19 89.8353 205.533 90.1854 207.189 90.1854C208.845 90.1854 210.203 89.8353 211.254 89.1315C212.306 88.4277 212.834 87.3883 212.834 86.0135C212.834 84.6387 212.306 83.5957 211.254 82.8846C210.203 82.1734 208.849 81.8197 207.189 81.8197C205.53 81.8197 204.227 82.1734 203.182 82.8846C202.138 83.5957 201.614 84.6387 201.614 86.0135C201.614 87.3883 202.131 88.4277 203.16 89.1315Z" fill="#FFFAF3"/>
<path d="M234.507 99.7429H223.782V72.1696H234.642L232.76 87.8508H233.23C233.87 81.943 234.889 77.7601 236.287 75.3095C237.68 72.8552 239.828 71.6299 242.725 71.6299C243.933 71.6299 244.999 71.8377 245.916 72.2571C246.834 72.6765 247.561 73.2162 248.1 73.8727C248.639 74.5327 249.075 75.3496 249.41 76.3306C249.745 77.3116 249.971 78.278 250.083 79.2371C250.196 80.1962 250.251 81.2574 250.251 82.4244C250.251 83.77 250.153 85.5788 249.96 87.8544H250.386C250.804 82.3806 251.79 78.3071 253.341 75.6377C254.895 72.9683 257.147 71.6335 260.103 71.6335C262.836 71.6335 264.852 72.6109 266.159 74.5619C267.465 76.5129 268.117 79.7039 268.117 84.1311V99.7466H257.391V89.2584C257.391 89.0105 257.388 88.6604 257.38 88.2045C257.373 87.7487 257.355 87.3949 257.326 87.1397C257.297 86.8844 257.26 86.5635 257.213 86.1733C257.169 85.7831 257.107 85.4767 257.035 85.2543C256.962 85.0318 256.875 84.7729 256.776 84.4811C256.678 84.1894 256.554 83.9633 256.405 83.7956C256.256 83.6314 256.092 83.471 255.914 83.3142C255.735 83.1574 255.524 83.0443 255.288 82.9787C255.048 82.9094 254.789 82.8766 254.505 82.8766C253.282 82.8766 252.449 83.7846 252.009 85.6007C251.568 87.4168 251.346 90.2504 251.346 94.0941V99.7466H240.621V89.0433C240.621 88.4452 240.61 87.9237 240.588 87.4824C240.567 87.0412 240.526 86.5635 240.465 86.0456C240.406 85.5314 240.312 85.1011 240.184 84.7547C240.057 84.4119 239.897 84.0873 239.704 83.7773C239.511 83.4673 239.256 83.2412 238.943 83.0917C238.63 82.9422 238.27 82.8656 237.87 82.8656C237.469 82.8656 237.105 82.9313 236.785 83.0662C236.465 83.2011 236.188 83.4345 235.955 83.7627C235.723 84.0909 235.526 84.4301 235.362 84.7729C235.198 85.1157 235.064 85.6153 234.958 86.2644C234.853 86.9172 234.773 87.5007 234.711 88.0258C234.653 88.551 234.605 89.2803 234.576 90.2139C234.547 91.1475 234.529 91.9534 234.522 92.6244C234.514 93.2991 234.511 94.2254 234.511 95.4069V99.7356L234.507 99.7429Z" fill="#FFFAF3"/>
<path d="M280.315 106.632H269.947V72.1696H280.716L279.751 81.6367H280.133C280.388 80.1123 280.748 78.763 281.218 77.5851C281.687 76.4108 282.215 75.4554 282.797 74.7151C283.38 73.9748 284.035 73.3694 284.766 72.899C285.498 72.4285 286.229 72.1003 286.961 71.9107C287.692 71.7247 288.468 71.6299 289.29 71.6299C291.543 71.6299 293.512 72.279 295.189 73.5809C296.867 74.8828 298.126 76.6041 298.963 78.7411C299.801 80.8818 300.219 83.2741 300.219 85.9216C300.219 88.5692 299.797 90.9688 298.953 93.124C298.108 95.2793 296.849 97.0151 295.168 98.328C293.49 99.6445 291.528 100.301 289.29 100.301C288.602 100.301 287.984 100.272 287.43 100.21C286.877 100.151 286.28 100.027 285.64 99.8414C284.999 99.6554 284.428 99.4001 283.926 99.0792C283.423 98.7583 282.928 98.3207 282.437 97.7664C281.946 97.2121 281.531 96.5629 281.192 95.8153C280.858 95.0678 280.566 94.1524 280.319 93.0657C280.072 91.9826 279.911 90.7573 279.839 89.397H279.3L280.308 96.0597V106.628L280.315 106.632ZM280.585 88.8609C281.629 89.5648 282.987 89.9149 284.661 89.9149C286.335 89.9149 287.685 89.5648 288.715 88.8609C289.745 88.1571 290.262 87.1105 290.262 85.7211C290.262 84.3316 289.741 83.3251 288.704 82.614C287.667 81.9029 286.32 81.5491 284.661 81.5491C283.001 81.5491 281.629 81.9029 280.585 82.614C279.54 83.3251 279.016 84.3608 279.016 85.7211C279.016 87.0813 279.54 88.1607 280.585 88.8609Z" fill="#FFFAF3"/>
<path d="M311.083 100.305C308.292 100.305 306.119 99.4478 304.569 97.7375C303.015 96.0235 302.239 93.7552 302.239 90.9289V78.6575H299.306V72.509C301.231 72.509 302.647 72.1371 303.55 71.3968C304.452 70.6565 304.904 69.3801 304.904 67.5713H313.052V72.1699H317.776V79.5291L313.052 78.7888V87.563C313.052 88.5804 313.223 89.3645 313.569 89.9188C313.911 90.4731 314.508 90.7502 315.359 90.7502C316.091 90.7502 316.71 90.36 317.219 89.5833H317.78V97.9964C316.109 99.5353 313.875 100.308 311.083 100.308V100.305Z" fill="#FFFAF3"/>
<path d="M334.21 100.305C331.91 100.305 329.785 99.9369 327.831 99.1929C325.876 98.4526 324.235 97.4388 322.917 96.1515C321.596 94.8642 320.563 93.3399 319.817 91.5748C319.071 89.8098 318.696 87.9244 318.696 85.9223C318.696 83.9202 319.038 82.1078 319.726 80.3573C320.414 78.6069 321.367 77.0898 322.594 75.8025C323.816 74.5152 325.323 73.4977 327.106 72.7501C328.89 72.0025 330.826 71.6269 332.918 71.6269C334.68 71.6269 336.339 71.8858 337.901 72.4C339.462 72.9142 340.838 73.6545 342.031 74.61C343.225 75.5654 344.171 76.7944 344.863 78.2896C345.558 79.7848 345.904 81.4513 345.904 83.293C345.904 84.2958 345.784 85.4555 345.547 86.772L328.577 86.0098C328.74 87.5196 329.432 88.6392 330.648 89.3649C331.863 90.0906 333.392 90.4516 335.226 90.4516C338.57 90.4516 341.504 89.5472 344.026 87.7384H344.63V97.902C343.48 98.6058 341.995 99.182 340.175 99.6306C338.356 100.079 336.369 100.305 334.218 100.305H334.21ZM326.127 70.4636V67.3018C327.874 67.1669 329.512 66.4339 331.041 65.1028C332.569 63.7717 333.628 62.0906 334.21 60.0557L339.382 63.8009C338.993 65.3873 338.086 66.7548 336.663 67.9072C335.237 69.0596 333.581 69.8546 331.692 70.2958C329.803 70.7371 327.947 70.7918 326.127 70.4636ZM328.926 83.5227L336.674 83.1179C336.449 82.4287 336.023 81.889 335.386 81.4915C334.749 81.094 333.978 80.897 333.068 80.897C332.158 80.897 331.35 81.1195 330.604 81.5571C329.858 81.9984 329.297 82.6548 328.926 83.5191V83.5227Z" fill="#FFFAF3"/>
<path d="M362.311 100.305C360.01 100.305 357.885 99.9369 355.931 99.193C353.976 98.4527 352.335 97.4389 351.018 96.1516C349.696 94.8643 348.663 93.3399 347.917 91.5749C347.171 89.8098 346.796 87.9244 346.796 85.9223C346.796 83.9203 347.138 82.1078 347.826 80.3574C348.514 78.6069 349.467 77.0898 350.694 75.8025C351.916 74.5152 353.423 73.4978 355.206 72.7502C356.99 72.0026 358.926 71.627 361.019 71.627C362.78 71.627 364.44 71.8859 366.001 72.4001C367.562 72.9143 368.938 73.6546 370.132 74.61C371.325 75.5655 372.272 76.7944 372.963 78.2896C373.658 79.7848 374.004 81.4514 374.004 83.293C374.004 84.2959 373.884 85.4556 373.647 86.772L356.677 86.0099C356.841 87.5196 357.532 88.6392 358.748 89.3649C359.963 90.0906 361.492 90.4516 363.326 90.4516C366.67 90.4516 369.604 89.5472 372.126 87.7384H372.73V97.902C371.58 98.6058 370.095 99.182 368.275 99.6306C366.456 100.079 364.469 100.305 362.318 100.305H362.311ZM357.026 83.5228L364.774 83.118C364.549 82.4287 364.123 81.889 363.486 81.4915C362.849 81.094 362.078 80.8971 361.168 80.8971C360.258 80.8971 359.45 81.1195 358.704 81.5571C357.958 81.9984 357.397 82.6548 357.026 83.5191V83.5228Z" fill="#FFFAF3"/>
</g>
<defs>
<clipPath id="clip0_1932_394">
<rect width="374" height="112" fill="white"/>
</clipPath>
</defs>
</svg>
