<svg width="178" height="53" viewBox="0 0 178 53" fill="none" xmlns="http://www.w3.org/2000/svg">
<g clip-path="url(#clip0_1598_4210)">
<path d="M27.7166 50.263C27.7166 50.263 28.6965 31.2906 42.6446 36.0104C42.6446 36.0104 50.6824 39.3962 46.9097 48.2422C46.9097 48.2422 44.3935 54.0303 37.5586 52.7204C37.5586 52.7204 34.9335 51.6833 33.4023 50.3717C31.8711 49.0602 28.1521 48.5149 27.7148 50.263H27.7166Z" fill="#0C0C0C" stroke="#0C0C0C" stroke-width="0.136604" stroke-miterlimit="10"/>
<path d="M6.61377 34.4797C6.61377 34.4797 24.9359 29.3647 24.8979 44.0712C24.8979 44.0712 24.2447 52.7584 14.6446 52.0043C14.6446 52.0043 8.34886 51.4658 7.41565 44.5785C7.41565 44.5785 7.56427 41.7639 8.32121 39.8967C9.07816 38.0295 8.41108 34.3365 6.61377 34.478V34.4797Z" fill="#0C0C0C" stroke="#0C0C0C" stroke-width="0.136604" stroke-miterlimit="10"/>
<path d="M15.1132 10.7029C15.1132 10.7029 24.6856 27.1195 10.4247 30.7884C10.4247 30.7884 1.84082 32.345 0.154111 22.8795C0.154111 22.8795 -0.910448 16.66 5.52875 14.0231C5.52875 14.0231 8.29384 13.4571 10.2933 13.7177C12.2929 13.9782 15.7043 12.4044 15.1132 10.7029Z" fill="#0C0C0C" stroke="#0C0C0C" stroke-width="0.136604" stroke-miterlimit="10"/>
<path d="M41.091 10.7633C41.091 10.7633 29.0767 25.4922 20.6138 13.4554C20.6138 13.4554 16.1309 5.98131 24.4089 1.06994C24.4089 1.06994 29.863 -2.11572 34.6034 2.9734C34.6034 2.9734 36.1069 5.35833 36.5683 7.31874C37.0298 9.27914 39.705 11.9143 41.0927 10.7615L41.091 10.7633Z" fill="#0C0C0C" stroke="#0C0C0C" stroke-width="0.136604" stroke-miterlimit="10"/>
<path d="M48.5515 35.3356C48.5515 35.3356 30.7927 28.5208 39.6134 16.7428C39.6134 16.7428 45.3302 10.161 52.5816 16.4874C52.5816 16.4874 57.3117 20.6705 53.9435 26.7537C53.9435 26.7537 52.141 28.9229 50.4197 29.9704C48.6967 31.0179 47.0238 34.3779 48.5515 35.3356Z" fill="#0C0C0C" stroke="#0C0C0C" stroke-width="0.136604" stroke-miterlimit="10"/>
<path d="M71.6453 22.1771H66.478V6.95289H75.43C76.9819 6.95289 78.1761 7.2963 79.0125 7.98314C79.849 8.66997 80.2672 9.54318 80.2672 10.6062C80.2672 11.2361 80.1134 11.7987 79.804 12.294C79.4964 12.7892 79.0834 13.1827 78.5649 13.4726C78.0482 13.7625 77.4813 13.9817 76.8696 14.1301C76.2561 14.2785 75.6166 14.3527 74.9513 14.3527V14.6288C75.5251 14.6288 76.0141 14.6547 76.4185 14.7082C76.8229 14.7617 77.2031 14.8618 77.5608 15.0102C77.9186 15.1586 78.2176 15.3726 78.4595 15.6522C78.6997 15.9318 78.895 16.2873 79.0436 16.7187C79.0782 16.817 79.2303 17.3071 79.4947 18.189C79.7591 19.0708 80.0218 19.8422 80.2758 20.5032C80.5316 21.1658 80.7649 21.6266 80.9775 21.8889V22.1754H75.3851C75.2071 21.8009 75.0412 21.3626 74.8856 20.8638C74.7301 20.3651 74.578 19.8284 74.4277 19.2555C74.2773 18.6825 74.1909 18.3426 74.1615 18.2356C73.9057 17.3572 73.631 16.7808 73.3372 16.5047C73.0434 16.2286 72.5837 16.0905 71.9598 16.0905H71.6401V22.1737L71.6453 22.1771ZM71.6453 10.8064V13.376H73.3787C73.9887 13.376 74.4605 13.2793 74.7975 13.0843C75.1345 12.8893 75.3021 12.5511 75.3021 12.0696C75.3021 11.5881 75.1362 11.2672 74.8027 11.0825C74.4691 10.8979 73.9939 10.8064 73.3787 10.8064H71.6453Z" fill="#0C0C0C"/>
<path d="M87.2525 22.4429C86.1603 22.4429 85.151 22.2668 84.223 21.9165C83.295 21.5662 82.5173 21.0865 81.8899 20.4773C81.2626 19.8681 80.7718 19.1468 80.4175 18.3115C80.0633 17.4763 79.8853 16.5841 79.8853 15.6367C79.8853 14.6892 80.0477 13.8316 80.3743 13.0032C80.701 12.1749 81.1537 11.457 81.7361 10.8478C82.3168 10.2386 83.0323 9.75717 83.8791 9.40339C84.7259 9.04962 85.6453 8.87188 86.639 8.87188C87.4754 8.87188 88.2635 8.9944 89.0049 9.23773C89.7463 9.48278 90.3995 9.83137 90.9663 10.2835C91.5332 10.7374 91.9825 11.3172 92.3109 12.0247C92.641 12.7323 92.8051 13.5209 92.8051 14.3924C92.8051 14.867 92.7481 15.4158 92.6358 16.0387L84.5773 15.6781C84.655 16.3925 84.9834 16.9223 85.5606 17.2657C86.1378 17.6091 86.8636 17.78 87.7347 17.78C89.3229 17.78 90.7158 17.352 91.9134 16.4961H92.2003V21.3056C91.6542 21.6387 90.9491 21.9113 90.085 22.1236C89.2209 22.3359 88.2773 22.4429 87.2559 22.4429H87.2525ZM84.7432 14.5011L88.4225 14.3096C88.3153 13.9834 88.1131 13.728 87.8107 13.5399C87.51 13.3518 87.1419 13.2586 86.7098 13.2586C86.2778 13.2586 85.8941 13.3639 85.5399 13.571C85.1856 13.7798 84.9194 14.0887 84.7432 14.4994V14.5011Z" fill="#0C0C0C"/>
<path d="M98.5878 22.1771H93.4517V5.86914H98.5878V22.1771Z" fill="#0C0C0C"/>
<path d="M103.34 22.4429C102.766 22.4429 102.232 22.3721 101.739 22.2306C101.247 22.0891 100.803 21.8768 100.405 21.5938C100.008 21.3108 99.6967 20.926 99.4703 20.441C99.2439 19.9561 99.1299 19.3953 99.1299 18.7585C99.1299 18.1217 99.256 17.5522 99.5066 17.0483C99.7589 16.5461 100.086 16.1388 100.49 15.8265C100.894 15.5159 101.378 15.257 101.942 15.0516C102.505 14.8463 103.074 14.703 103.647 14.6219C104.221 14.5408 104.828 14.4994 105.465 14.4994C106.245 14.4994 106.993 14.5564 107.709 14.6685V14.477C107.389 13.8402 106.525 13.5209 105.115 13.5209C104.349 13.5209 103.564 13.6573 102.759 13.9299C101.954 14.2026 101.261 14.5512 100.68 14.9757H100.393V10.0385C101.095 9.70539 101.919 9.42755 102.864 9.20494C103.81 8.98232 104.786 8.87015 105.794 8.87015C107.928 8.87015 109.618 9.43791 110.866 10.5734C112.114 11.7089 112.738 13.2327 112.738 15.1448V22.1736H107.793V21.7595L108.431 16.4512H108.186C108.122 18.4616 107.669 19.9613 106.824 20.9536C105.98 21.9441 104.817 22.4394 103.336 22.4394L103.34 22.4429ZM105.137 18.812C105.761 18.812 106.266 18.5876 106.653 18.1372C107.038 17.6885 107.261 17.119 107.316 16.4339H106.359C105.472 16.4339 104.838 16.572 104.456 16.8481C104.074 17.1242 103.882 17.4573 103.882 17.8456C103.882 18.1579 104.003 18.3961 104.244 18.5617C104.484 18.7274 104.783 18.812 105.137 18.812Z" fill="#0C0C0C"/>
<path d="M118.448 22.4429C117.122 22.4429 116.091 22.0373 115.354 21.228C114.616 20.4169 114.248 19.3435 114.248 18.0061V12.199H112.855V9.2895C113.77 9.2895 114.442 9.11348 114.871 8.76316C115.299 8.41284 115.513 7.80884 115.513 6.95289H119.383V9.12901H121.626V12.6115L119.383 12.2612V16.4132C119.383 16.8947 119.464 17.2657 119.628 17.528C119.791 17.7903 120.074 17.9215 120.478 17.9215C120.826 17.9215 121.12 17.7368 121.362 17.3693H121.628V21.3505C120.834 22.0805 119.773 22.4446 118.448 22.4446V22.4429Z" fill="#0C0C0C"/>
<path d="M125.093 10.9341C124.229 10.9341 123.529 10.677 122.993 10.1644C122.457 9.65189 122.189 9.02373 122.189 8.27995C122.189 7.53617 122.461 6.90456 123.003 6.38512C123.546 5.86568 124.243 5.6051 125.093 5.6051C125.943 5.6051 126.626 5.86568 127.161 6.38512C127.697 6.90456 127.963 7.5379 127.963 8.27995C127.963 9.02201 127.699 9.66052 127.172 10.1696C126.643 10.6787 125.95 10.9341 125.093 10.9341ZM127.656 22.1771H122.499V10.5199H122.668C123.271 11.0998 124.078 11.3897 125.093 11.3897C126.107 11.3897 126.883 11.0998 127.485 10.5199H127.654V22.1771H127.656Z" fill="#0C0C0C"/>
<path d="M135.555 22.4429C134.463 22.4429 133.461 22.2651 132.546 21.9113C131.632 21.5576 130.867 21.0744 130.25 20.4617C129.633 19.8491 129.154 19.1329 128.814 18.3115C128.473 17.4901 128.304 16.6134 128.304 15.6781C128.304 14.9343 128.411 14.2216 128.629 13.5382C128.845 12.8548 129.161 12.2301 129.581 11.6641C129.999 11.098 130.498 10.6062 131.079 10.1886C131.66 9.77097 132.334 9.44654 133.099 9.21702C133.865 8.9875 134.684 8.87188 135.555 8.87188C136.625 8.87188 137.615 9.05308 138.528 9.41375C139.44 9.77442 140.202 10.2611 140.819 10.8737C141.436 11.4863 141.918 12.2077 142.266 13.0395C142.613 13.8713 142.786 14.7514 142.786 15.6781C142.786 16.6048 142.618 17.4901 142.281 18.3115C141.944 19.1329 141.471 19.8491 140.862 20.4617C140.252 21.0744 139.49 21.5576 138.576 21.9113C137.662 22.2651 136.654 22.4429 135.557 22.4429H135.555ZM133.642 17.1553C134.131 17.4883 134.769 17.654 135.555 17.654C136.341 17.654 136.986 17.4883 137.486 17.1553C137.985 16.8222 138.236 16.3304 138.236 15.6798C138.236 15.0292 137.985 14.5357 137.486 14.1991C136.986 13.8626 136.343 13.6952 135.555 13.6952C134.767 13.6952 134.148 13.8626 133.652 14.1991C133.156 14.5357 132.908 15.0292 132.908 15.6798C132.908 16.3304 133.153 16.8222 133.642 17.1553Z" fill="#0C0C0C"/>
<path d="M148.527 22.1771H143.434V9.12901H148.59L147.771 16.5496H147.984C148.281 13.7108 148.782 11.7227 149.489 10.5821C150.194 9.44309 151.305 8.87188 152.823 8.87188C154.121 8.87188 155.116 9.33609 155.811 10.2628C156.506 11.1895 156.853 12.684 156.853 14.7427V22.1754H151.75V17.547C151.75 17.2071 151.746 16.9258 151.739 16.7031C151.732 16.4805 151.715 16.2251 151.686 15.9387C151.658 15.6522 151.613 15.4192 151.553 15.238C151.492 15.0568 151.413 14.8825 151.314 14.7117C151.214 14.5426 151.084 14.4166 150.92 14.3355C150.758 14.2544 150.569 14.2129 150.357 14.2129C150.087 14.2129 149.852 14.2664 149.65 14.3717C149.448 14.4787 149.28 14.6461 149.145 14.8756C149.01 15.1051 148.902 15.3588 148.82 15.6349C148.739 15.911 148.677 16.2665 148.634 16.7014C148.59 17.1363 148.563 17.5591 148.549 17.9698C148.535 18.3805 148.528 18.8827 148.528 19.4781V22.1754L148.527 22.1771Z" fill="#0C0C0C"/>
<path d="M71.2947 50.4598H66.3711V34.1518H71.4848L71.0268 38.6317H71.2083C71.3292 37.9104 71.5003 37.2719 71.7233 36.7145C71.9462 36.1588 72.1968 35.7067 72.4733 35.3563C72.7498 35.006 73.0609 34.7196 73.4082 34.4969C73.7556 34.2743 74.103 34.119 74.4503 34.0293C74.7977 33.9413 75.1658 33.8964 75.5564 33.8964C76.6261 33.8964 77.5611 34.2036 78.3578 34.8196C79.1544 35.4357 79.7524 36.2503 80.1499 37.2615C80.5474 38.2745 80.7461 39.4066 80.7461 40.6594C80.7461 41.9123 80.5456 43.0478 80.1447 44.0677C79.7438 45.0876 79.1458 45.9091 78.3474 46.5303C77.5507 47.1533 76.6192 47.4639 75.5564 47.4639C75.2298 47.4639 74.936 47.4501 74.6733 47.4208C74.4106 47.3932 74.1272 47.3345 73.823 47.2465C73.5189 47.1585 73.2475 47.0377 73.009 46.8858C72.7723 46.7339 72.5355 46.5269 72.3022 46.2646C72.0689 46.0022 71.8719 45.6951 71.7129 45.3413C71.5539 44.9875 71.4157 44.5544 71.2981 44.0401C71.1806 43.5259 71.1046 42.9477 71.07 42.304H70.8142L71.293 45.4569V50.458L71.2947 50.4598ZM71.4226 42.0504C71.9186 42.3834 72.5632 42.5491 73.3581 42.5491C74.1531 42.5491 74.7942 42.3834 75.2833 42.0504C75.7724 41.7173 76.0178 41.222 76.0178 40.5645C76.0178 39.907 75.7707 39.4307 75.2781 39.0942C74.7856 38.7577 74.1462 38.5903 73.3599 38.5903C72.5735 38.5903 71.9203 38.7577 71.4243 39.0942C70.9283 39.4307 70.6795 39.9208 70.6795 40.5645C70.6795 41.2082 70.9283 41.719 71.4243 42.0504H71.4226Z" fill="#0C0C0C"/>
<path d="M86.4865 47.1999H81.3936V34.1518H86.5504L85.7313 41.5724H85.9439C86.0648 40.0796 86.248 38.8337 86.4969 37.8345C86.7457 36.837 87.0724 36.0484 87.4802 35.472C87.8881 34.8956 88.3478 34.4883 88.8628 34.2502C89.376 34.0137 89.9947 33.8947 90.7188 33.8947V39.8294H90.4319C90.05 39.448 89.5713 39.2564 88.9958 39.2564C88.2233 39.2564 87.6115 39.5999 87.1622 40.2867C86.7129 40.9735 86.4865 42.0176 86.4865 43.4189V47.1982V47.1999Z" fill="#0C0C0C"/>
<path d="M98.3852 47.4656C97.293 47.4656 96.2907 47.2879 95.3765 46.9341C94.4623 46.5804 93.6967 46.0972 93.0797 45.4845C92.4628 44.8719 91.984 44.1557 91.6436 43.3343C91.3031 42.5129 91.1338 41.6362 91.1338 40.7009C91.1338 39.9571 91.2409 39.2444 91.4587 38.561C91.6747 37.8776 91.9927 37.2529 92.4109 36.6869C92.8291 36.1208 93.3286 35.629 93.9092 35.2114C94.4899 34.7938 95.1639 34.4693 95.9295 34.2398C96.6951 34.0103 97.5142 33.8947 98.3852 33.8947C99.455 33.8947 100.445 34.0759 101.358 34.4365C102.268 34.7972 103.032 35.2839 103.649 35.8965C104.266 36.5091 104.748 37.2305 105.096 38.0623C105.443 38.894 105.616 39.7742 105.616 40.7009C105.616 41.6276 105.448 42.5129 105.111 43.3343C104.774 44.1557 104.301 44.8719 103.692 45.4845C103.084 46.0972 102.32 46.5804 101.406 46.9341C100.492 47.2879 99.4844 47.4656 98.387 47.4656H98.3852ZM96.4721 42.1781C96.9612 42.5111 97.5989 42.6768 98.3852 42.6768C99.1715 42.6768 99.8162 42.5111 100.316 42.1781C100.815 41.845 101.066 41.3532 101.066 40.7026C101.066 40.052 100.815 39.5584 100.316 39.2219C99.8162 38.8854 99.1733 38.718 98.3852 38.718C97.5972 38.718 96.9785 38.8854 96.4825 39.2219C95.9865 39.5584 95.7377 40.052 95.7377 40.7026C95.7377 41.3532 95.9831 41.845 96.4721 42.1781Z" fill="#0C0C0C"/>
<path d="M111.357 47.1999H106.264V34.1518H111.421L110.528 41.5723H110.751C111.055 38.7767 111.539 36.7973 112.202 35.6376C112.864 34.4762 113.884 33.8964 115.259 33.8964C115.833 33.8964 116.339 33.9948 116.775 34.1932C117.21 34.3917 117.556 34.6471 117.812 34.9577C118.068 35.2701 118.275 35.6566 118.434 36.1208C118.593 36.585 118.7 37.0424 118.754 37.4962C118.807 37.9501 118.833 38.4523 118.833 39.0045C118.833 39.6413 118.787 40.4972 118.695 41.5741H118.897C119.096 38.9838 119.564 37.0562 120.3 35.7929C121.038 34.5297 122.108 33.8981 123.511 33.8981C124.809 33.8981 125.767 34.3606 126.387 35.2839C127.008 36.2071 127.317 37.7171 127.317 39.8121V47.2016H122.224V42.2385C122.224 42.1211 122.222 41.9555 122.219 41.7397C122.215 41.524 122.207 41.3566 122.193 41.2358C122.179 41.115 122.162 40.9632 122.139 40.7785C122.118 40.5939 122.089 40.4489 122.055 40.3436C122.02 40.2384 121.979 40.1158 121.932 39.9778C121.885 39.8397 121.826 39.7327 121.756 39.6534C121.685 39.5757 121.607 39.4998 121.522 39.4256C121.438 39.3514 121.337 39.2979 121.225 39.2668C121.111 39.234 120.988 39.2185 120.853 39.2185C120.273 39.2185 119.877 39.6482 119.668 40.5076C119.459 41.367 119.353 42.7079 119.353 44.5268V47.2016H114.26V42.1367C114.26 41.8536 114.255 41.6069 114.245 41.3981C114.235 41.1892 114.216 40.9632 114.186 40.7181C114.158 40.4748 114.114 40.2712 114.053 40.1072C113.993 39.945 113.917 39.7914 113.825 39.6447C113.733 39.498 113.612 39.3911 113.464 39.3203C113.315 39.2495 113.144 39.2133 112.954 39.2133C112.764 39.2133 112.591 39.2444 112.439 39.3082C112.287 39.3721 112.156 39.4825 112.045 39.6378C111.934 39.7931 111.841 39.9536 111.763 40.1158C111.685 40.2781 111.622 40.5145 111.571 40.8217C111.521 41.1306 111.483 41.4067 111.454 41.6552C111.426 41.9037 111.404 42.2488 111.39 42.6906C111.376 43.1324 111.367 43.5138 111.364 43.8313C111.361 44.1506 111.359 44.5889 111.359 45.148V47.1964L111.357 47.1999Z" fill="#0C0C0C"/>
<path d="M133.11 50.4598H128.186V34.1518H133.3L132.842 38.6317H133.023C133.144 37.9104 133.315 37.2719 133.538 36.7145C133.761 36.1588 134.012 35.7067 134.288 35.3563C134.565 35.006 134.876 34.7196 135.223 34.4969C135.571 34.2743 135.918 34.119 136.265 34.0293C136.613 33.9413 136.981 33.8964 137.371 33.8964C138.441 33.8964 139.376 34.2036 140.173 34.8196C140.969 35.4357 141.567 36.2503 141.965 37.2615C142.362 38.2745 142.561 39.4066 142.561 40.6594C142.561 41.9123 142.361 43.0478 141.96 44.0677C141.559 45.0876 140.961 45.9091 140.162 46.5303C139.366 47.1533 138.434 47.4639 137.371 47.4639C137.045 47.4639 136.751 47.4501 136.488 47.4208C136.226 47.3932 135.942 47.3345 135.638 47.2465C135.334 47.1585 135.062 47.0377 134.824 46.8858C134.585 46.7339 134.35 46.5269 134.117 46.2646C133.884 46.0022 133.687 45.6951 133.526 45.3413C133.367 44.9875 133.229 44.5544 133.111 44.0401C132.994 43.5276 132.918 42.9477 132.883 42.304H132.627L133.106 45.4569V50.458L133.11 50.4598ZM133.238 42.0504C133.733 42.3834 134.378 42.5491 135.173 42.5491C135.968 42.5491 136.609 42.3834 137.098 42.0504C137.587 41.7173 137.833 41.222 137.833 40.5645C137.833 39.907 137.586 39.4307 137.093 39.0942C136.601 38.7577 135.961 38.5903 135.173 38.5903C134.385 38.5903 133.733 38.7577 133.238 39.0942C132.742 39.4307 132.493 39.9208 132.493 40.5645C132.493 41.2082 132.742 41.719 133.238 42.0504Z" fill="#0C0C0C"/>
<path d="M147.72 47.4656C146.394 47.4656 145.363 47.0601 144.626 46.2507C143.888 45.4397 143.52 44.3663 143.52 43.0288V37.2218H142.127V34.3123C143.042 34.3123 143.714 34.1363 144.143 33.7859C144.571 33.4356 144.785 32.8316 144.785 31.9757H148.655V34.1518H150.898V37.6343L148.655 37.284V41.436C148.655 41.9175 148.736 42.2885 148.9 42.5508C149.063 42.8131 149.346 42.9443 149.75 42.9443C150.098 42.9443 150.392 42.7596 150.634 42.3921H150.9V46.3733C150.106 47.1015 149.045 47.4674 147.72 47.4674V47.4656Z" fill="#0C0C0C"/>
<path d="M158.702 47.4656C157.61 47.4656 156.601 47.2914 155.673 46.9393C154.745 46.589 153.965 46.1092 153.34 45.5001C152.712 44.8909 152.222 44.1695 151.867 43.3343C151.513 42.4991 151.335 41.6069 151.335 40.6595C151.335 39.712 151.497 38.8544 151.824 38.026C152.151 37.1977 152.603 36.4798 153.186 35.8706C153.767 35.2614 154.482 34.78 155.329 34.4262C156.176 34.0724 157.095 33.8947 158.089 33.8947C158.925 33.8947 159.713 34.0172 160.455 34.2605C161.196 34.5038 161.849 34.8542 162.416 35.3063C162.983 35.7584 163.432 36.34 163.761 37.0475C164.091 37.7551 164.255 38.5437 164.255 39.4152C164.255 39.8898 164.198 40.4386 164.085 41.0615L156.027 40.7009C156.105 41.4153 156.433 41.9451 157.01 42.2885C157.588 42.6319 158.313 42.8028 159.184 42.8028C160.773 42.8028 162.165 42.3748 163.363 41.5189H163.65V46.3284C163.104 46.6615 162.399 46.9341 161.535 47.1464C160.671 47.3587 159.727 47.4656 158.706 47.4656H158.702ZM154.864 33.3442V31.848C155.693 31.7841 156.471 31.4373 157.197 30.8074C157.923 30.1775 158.426 29.3819 158.702 28.419L161.158 30.1913C160.973 30.942 160.543 31.5891 159.867 32.1344C159.19 32.6798 158.403 33.056 157.506 33.2648C156.609 33.4736 155.728 33.4995 154.864 33.3442ZM156.193 39.5239L159.872 39.3324C159.765 39.0062 159.563 38.7508 159.26 38.5627C158.958 38.3746 158.592 38.2814 158.16 38.2814C157.727 38.2814 157.344 38.3867 156.99 38.5938C156.635 38.8026 156.369 39.1132 156.193 39.5222V39.5239Z" fill="#0C0C0C"/>
<path d="M172.046 47.4656C170.954 47.4656 169.944 47.2914 169.016 46.9393C168.088 46.589 167.309 46.1092 166.683 45.5001C166.056 44.8909 165.565 44.1695 165.211 43.3343C164.857 42.4991 164.679 41.6069 164.679 40.6595C164.679 39.712 164.841 38.8544 165.168 38.026C165.494 37.1977 165.947 36.4798 166.53 35.8706C167.11 35.2614 167.826 34.78 168.673 34.4262C169.519 34.0724 170.439 33.8947 171.432 33.8947C172.269 33.8947 173.057 34.0172 173.798 34.2605C174.54 34.5038 175.193 34.8542 175.76 35.3063C176.327 35.7584 176.776 36.34 177.104 37.0475C177.434 37.7551 177.599 38.5437 177.599 39.4152C177.599 39.8898 177.542 40.4386 177.429 41.0615L169.371 40.7009C169.448 41.4153 169.777 41.9451 170.354 42.2885C170.931 42.6319 171.657 42.8028 172.528 42.8028C174.116 42.8028 175.509 42.3748 176.707 41.5189H176.994V46.3284C176.448 46.6615 175.743 46.9341 174.878 47.1464C174.014 47.3587 173.071 47.4656 172.049 47.4656H172.046ZM169.537 39.5239L173.216 39.3324C173.109 39.0062 172.907 38.7508 172.604 38.5627C172.302 38.3746 171.935 38.2814 171.503 38.2814C171.071 38.2814 170.688 38.3867 170.333 38.5938C169.979 38.8026 169.713 39.1132 169.537 39.5222V39.5239Z" fill="#0C0C0C"/>
</g>
<defs>
<clipPath id="clip0_1598_4210">
<rect width="177.596" height="53" fill="white"/>
</clipPath>
</defs>
</svg>
